<mxfile host="app.diagrams.net" modified="2022-08-05T19:47:43.479Z" agent="5.0 (Macintosh)" etag="wh8TJzRTUl-WDa_g4kVy" version="17.5.0" type="github">
  <diagram id="Mwg2nT4T8ZCo53rEqKDP" name="Page-1">
    <mxGraphModel dx="1298" dy="807" grid="1" gridSize="10" guides="1" tooltips="1" connect="1" arrows="1" fold="1" page="1" pageScale="1" pageWidth="850" pageHeight="1100" math="0" shadow="0">
      <root>
        <mxCell id="0" />
        <mxCell id="1" parent="0" />
        <mxCell id="3nuBFxr9cyL0pnOWT2aG-1" value="Worker Pool App Scheduler" style="shape=table;childLayout=tableLayout;startSize=40;collapsible=0;recursiveResize=0;expand=0;fillColor=none;fontStyle=1" parent="1" vertex="1">
          <mxGeometry x="100" y="70" width="650" height="370" as="geometry" />
        </mxCell>
        <mxCell id="3nuBFxr9cyL0pnOWT2aG-3" value="Thread1" style="shape=tableRow;horizontal=0;swimlaneHead=0;swimlaneBody=0;top=0;left=0;bottom=0;right=0;fillColor=none;points=[[0,0.5],[1,0.5]];portConstraint=eastwest;startSize=40;collapsible=0;recursiveResize=0;expand=0;fontStyle=1;" parent="3nuBFxr9cyL0pnOWT2aG-1" vertex="1">
          <mxGeometry y="40" width="650" height="90" as="geometry" />
        </mxCell>
        <mxCell id="3nuBFxr9cyL0pnOWT2aG-4" value="" style="swimlane;swimlaneHead=0;swimlaneBody=0;connectable=0;fillColor=none;startSize=0;collapsible=0;recursiveResize=0;expand=0;fontStyle=1;" parent="3nuBFxr9cyL0pnOWT2aG-3" vertex="1">
          <mxGeometry x="40" width="610" height="90" as="geometry">
            <mxRectangle width="610" height="90" as="alternateBounds" />
          </mxGeometry>
        </mxCell>
        <mxCell id="we4XuuItNtd-6PvZgcAC-14" value="goroutine - Main" style="rounded=1;whiteSpace=wrap;html=1;fillColor=#d5e8d4;strokeColor=#82b366;" parent="3nuBFxr9cyL0pnOWT2aG-4" vertex="1">
          <mxGeometry x="10" y="15" width="240" height="60" as="geometry" />
        </mxCell>
        <mxCell id="we4XuuItNtd-6PvZgcAC-21" value="GC" style="rounded=1;whiteSpace=wrap;html=1;fillColor=#dae8fc;strokeColor=#6c8ebf;" parent="3nuBFxr9cyL0pnOWT2aG-4" vertex="1">
          <mxGeometry x="260" y="15" width="60" height="305" as="geometry" />
        </mxCell>
        <mxCell id="we4XuuItNtd-6PvZgcAC-22" value="goroutine - Main" style="rounded=1;whiteSpace=wrap;html=1;fillColor=#d5e8d4;strokeColor=#82b366;" parent="3nuBFxr9cyL0pnOWT2aG-4" vertex="1">
          <mxGeometry x="330" y="15" width="270" height="60" as="geometry" />
        </mxCell>
        <mxCell id="3nuBFxr9cyL0pnOWT2aG-15" value="Thread 2" style="shape=tableRow;horizontal=0;swimlaneHead=0;swimlaneBody=0;top=0;left=0;bottom=0;right=0;fillColor=none;points=[[0,0.5],[1,0.5]];portConstraint=eastwest;startSize=40;collapsible=0;recursiveResize=0;expand=0;fontStyle=1;" parent="3nuBFxr9cyL0pnOWT2aG-1" vertex="1">
          <mxGeometry y="130" width="650" height="80" as="geometry" />
        </mxCell>
        <mxCell id="3nuBFxr9cyL0pnOWT2aG-16" value="" style="swimlane;swimlaneHead=0;swimlaneBody=0;connectable=0;fillColor=none;startSize=0;collapsible=0;recursiveResize=0;expand=0;fontStyle=1;" parent="3nuBFxr9cyL0pnOWT2aG-15" vertex="1">
          <mxGeometry x="40" width="610" height="80" as="geometry">
            <mxRectangle width="610" height="80" as="alternateBounds" />
          </mxGeometry>
        </mxCell>
        <mxCell id="we4XuuItNtd-6PvZgcAC-15" value="goroutine - Worker 1" style="rounded=1;whiteSpace=wrap;html=1;fillColor=#e1d5e7;strokeColor=#9673a6;" parent="3nuBFxr9cyL0pnOWT2aG-16" vertex="1">
          <mxGeometry x="10" y="10" width="120" height="60" as="geometry" />
        </mxCell>
        <mxCell id="we4XuuItNtd-6PvZgcAC-16" value="goroutine - Worker 4" style="rounded=1;whiteSpace=wrap;html=1;fillColor=#e1d5e7;strokeColor=#9673a6;" parent="3nuBFxr9cyL0pnOWT2aG-16" vertex="1">
          <mxGeometry x="130" y="10" width="120" height="60" as="geometry" />
        </mxCell>
        <mxCell id="we4XuuItNtd-6PvZgcAC-6" value="Thread 3" style="shape=tableRow;horizontal=0;swimlaneHead=0;swimlaneBody=0;top=0;left=0;bottom=0;right=0;fillColor=none;points=[[0,0.5],[1,0.5]];portConstraint=eastwest;startSize=40;collapsible=0;recursiveResize=0;expand=0;fontStyle=1;" parent="3nuBFxr9cyL0pnOWT2aG-1" vertex="1">
          <mxGeometry y="210" width="650" height="80" as="geometry" />
        </mxCell>
        <mxCell id="we4XuuItNtd-6PvZgcAC-7" style="swimlane;swimlaneHead=0;swimlaneBody=0;connectable=0;fillColor=none;startSize=0;collapsible=0;recursiveResize=0;expand=0;fontStyle=1;" parent="we4XuuItNtd-6PvZgcAC-6" vertex="1">
          <mxGeometry x="40" width="610" height="80" as="geometry">
            <mxRectangle width="610" height="80" as="alternateBounds" />
          </mxGeometry>
        </mxCell>
        <mxCell id="we4XuuItNtd-6PvZgcAC-20" value="goroutine - Worker 2" style="rounded=1;whiteSpace=wrap;html=1;fillColor=#e1d5e7;strokeColor=#9673a6;" parent="we4XuuItNtd-6PvZgcAC-7" vertex="1">
          <mxGeometry x="10" y="10" width="120" height="60" as="geometry" />
        </mxCell>
        <mxCell id="we4XuuItNtd-6PvZgcAC-17" value="goroutine - Worker 5" style="rounded=1;whiteSpace=wrap;html=1;fillColor=#e1d5e7;strokeColor=#9673a6;" parent="we4XuuItNtd-6PvZgcAC-7" vertex="1">
          <mxGeometry x="130" y="10" width="120" height="60" as="geometry" />
        </mxCell>
        <mxCell id="we4XuuItNtd-6PvZgcAC-2" value="Thread 4" style="shape=tableRow;horizontal=0;swimlaneHead=0;swimlaneBody=0;top=0;left=0;bottom=0;right=0;fillColor=none;points=[[0,0.5],[1,0.5]];portConstraint=eastwest;startSize=40;collapsible=0;recursiveResize=0;expand=0;fontStyle=1;" parent="3nuBFxr9cyL0pnOWT2aG-1" vertex="1">
          <mxGeometry y="290" width="650" height="80" as="geometry" />
        </mxCell>
        <mxCell id="we4XuuItNtd-6PvZgcAC-3" style="swimlane;swimlaneHead=0;swimlaneBody=0;connectable=0;fillColor=none;startSize=0;collapsible=0;recursiveResize=0;expand=0;fontStyle=1;" parent="we4XuuItNtd-6PvZgcAC-2" vertex="1">
          <mxGeometry x="40" width="610" height="80" as="geometry">
            <mxRectangle width="610" height="80" as="alternateBounds" />
          </mxGeometry>
        </mxCell>
        <mxCell id="we4XuuItNtd-6PvZgcAC-19" value="goroutine - Worker 3" style="rounded=1;whiteSpace=wrap;html=1;fillColor=#e1d5e7;strokeColor=#9673a6;" parent="we4XuuItNtd-6PvZgcAC-3" vertex="1">
          <mxGeometry x="10" y="10" width="120" height="60" as="geometry" />
        </mxCell>
        <mxCell id="we4XuuItNtd-6PvZgcAC-18" value="goroutine - Worker 6" style="rounded=1;whiteSpace=wrap;html=1;fillColor=#e1d5e7;strokeColor=#9673a6;" parent="we4XuuItNtd-6PvZgcAC-3" vertex="1">
          <mxGeometry x="130" y="10" width="120" height="60" as="geometry" />
        </mxCell>
      </root>
    </mxGraphModel>
  </diagram>
</mxfile>
